<svg version="1.2" xmlns="http://www.w3.org/2000/svg" viewBox="0 0 155 155" width="155" height="155">
	<title>WhatsApp</title>
	<defs>
		<filter x="-50%" y="-50%" width="200%" height="200%" id="f1"> <feGaussianBlur stdDeviation="3.5"/> </filter>
		<linearGradient id="g1" x2="1" gradientUnits="userSpaceOnUse" gradientTransform="matrix(.62,104.525,-104.523,.62,74.915,21.567)">
			<stop offset="0" stop-color="#57d163"/>
			<stop offset="1" stop-color="#23b33a"/>
		</linearGradient>
	</defs>
	<style>
		.s0 { filter: url(#f1);fill: #b3b3b3 } 
		.s1 { fill: #ffffff } 
		.s2 { fill: #000000 } 
		.s3 { fill: url(#g1) } 
	</style>
	<path class="s0" d="m2.7 151l10.5-38.1c-6.5-11.2-9.9-23.8-9.9-36.8 0.1-40.5 33.1-73.5 73.6-73.5 19.7 0 38.2 7.6 52.1 21.5 13.9 13.9 21.5 32.4 21.5 52.1 0 40.5-33 73.5-73.6 73.5-12.3 0-24.4-3.1-35.2-8.9zm40.8-23.6l2.3 1.3c9.4 5.6 20.1 8.6 31.1 8.6 33.7 0 61.2-27.5 61.2-61.2 0-16.3-6.4-31.7-17.9-43.2q-4.3-4.3-9.3-7.6-5-3.4-10.5-5.7-5.6-2.3-11.5-3.5-5.9-1.2-12-1.1c-33.7 0-61.1 27.4-61.1 61.1q0 4.3 0.6 8.5 0.6 4.3 1.7 8.4 1.2 4.1 3 8.1 1.7 3.9 4 7.5l1.5 2.3-6.2 22.6z"/>
	<path class="s1" d="m2 150.2l10.4-38.1q-2.4-4.2-4.2-8.6-1.9-4.5-3.1-9.1-1.3-4.7-1.9-9.4-0.6-4.8-0.6-9.6c0-40.6 33-73.6 73.6-73.6 19.6 0 38.1 7.7 52 21.6 13.9 13.9 21.5 32.4 21.5 52 0 40.6-33 73.6-73.5 73.6h-0.1c-12.3 0-24.4-3.1-35.1-9z"/>
	<path class="s2" d="m76.2 14.2c-33.7 0-61.2 27.4-61.2 61.2q0 4.3 0.6 8.5 0.6 4.3 1.8 8.4 1.2 4.1 2.9 8 1.8 4 4.1 7.6l1.4 2.3-6.2 22.6 23.2-6.1 2.2 1.3c9.4 5.6 20.2 8.5 31.1 8.5h0.1c33.7 0 61.1-27.4 61.1-61.1q0-6-1.1-11.9-1.2-5.9-3.5-11.5-2.3-5.6-5.7-10.6-3.3-5-7.6-9.2-4.2-4.3-9.2-7.7-5-3.3-10.6-5.6-5.6-2.3-11.5-3.5-5.9-1.2-11.9-1.2z"/>
	<path class="s3" d="m76.2 14.2c-33.7 0-61.2 27.4-61.2 61.2q0 4.3 0.6 8.5 0.6 4.3 1.8 8.4 1.2 4.1 2.9 8 1.8 4 4.1 7.6l1.4 2.3-6.2 22.6 23.2-6.1 2.2 1.3c9.4 5.6 20.2 8.5 31.1 8.5h0.1c33.7 0 61.1-27.4 61.1-61.1q0-6-1.1-11.9-1.2-5.9-3.5-11.5-2.3-5.6-5.7-10.6-3.3-5-7.6-9.2-4.2-4.3-9.2-7.7-5-3.3-10.6-5.6-5.6-2.3-11.5-3.5-5.9-1.2-11.9-1.2z"/>
	<path fill-rule="evenodd" class="s1" d="m57.8 44.6c-1.4-3.1-2.9-3.1-4.2-3.2h-3.5c-1.2 0-3.2 0.4-4.9 2.3-1.7 1.8-6.4 6.3-6.4 15.3 0 9.1 6.6 17.8 7.5 19 0.9 1.3 12.7 20.4 31.4 27.8 15.5 6.1 18.7 4.9 22 4.6 3.4-0.3 10.9-4.5 12.5-8.8 1.5-4.3 1.5-7.9 1-8.7-0.4-0.8-1.7-1.2-3.5-2.1-1.8-1-10.9-5.4-12.6-6-1.6-0.6-2.9-0.9-4.1 0.9-1.2 1.8-4.7 6-5.8 7.2-1.1 1.2-2.2 1.4-4 0.5-1.8-1-7.8-2.9-14.8-9.2-5.4-4.8-9.1-10.9-10.2-12.7-1.1-1.8-0.1-2.8 0.8-3.7 0.8-0.9 1.8-2.2 2.8-3.3 0.9-1 1.2-1.8 1.8-3 0.6-1.3 0.3-2.3-0.2-3.2-0.4-1-4-10.1-5.6-13.7z"/>
</svg>